:SAMPLES-PER-SECOND 30
:FULLY-SPECIFIED
:DEGREES
310
root  35.0935568 36.52107659 -14.76571691 9.150970459 3.279721022 3.128436089
lowerback  -8.183589935 0.2762729526 1.616500258
upperback  -3.83968997 -0.05605309829 -2.536030054
thorax  0.6139500141 -0.2127619982 -3.536619902
lowerneck  -16.81669998 2.167639971 1.966950059
upperneck  16.07099915 1.569650054 3.6307199
head  7.723229885 1.156319976 1.048870087
lclavicle  0 -4.497500157e-015 -2.743230041e-014
lhumerus  -43.68529892 26.0734005 70.62380219
lradius  -0.113979131 -6.507048965e-006 28.22949982
lwrist  4.824992743e-007 -3.790274832e-007 -29.29999924
lhand  -0 -36.82910156 -10.70300007
lfingers  90 7.125020027 -90
lthumb  94.78875392 -25.54089956 100.9957214
rclavicle  0 -4.497500157e-015 -2.743230041e-014
rhumerus  -47.542099 -19.87809944 -69.75160217
rradius  -5.16745672e-007 2.214343908e-008 78.3015976
rwrist  1.129822067e-006 0.001802438172 -169.0500031
rhand  -0 5.069950104 -5.718249798
rfingers  -90 -7.125020027 -90
rthumb  -83.97218158 -10.13320163 -59.0283827
rfemur  -11.65560341 14.1383419 13.94429588
rtibia  -1.029346466 1.358415365 20.83981895
rfoot  -0.6332671046 -17.65590668 -40.83349609
rtoes  3.920850657 19.62735866 -101.5325697
lfemur  -9.701850891 -19.64549637 -18.72864723
ltibia  1.939545035 0.9171951413 15.52361012
lfoot  0.4242387712 -27.71742058 34.05710983
ltoes  -8.579061718 -18.13498519 -115.8588492
311
root  35.09365292 36.52088736 -14.77206523 9.191973686 3.185200214 3.102317333
lowerback  -8.096580505 0.2524619699 1.542270541
upperback  -3.864300013 -0.08279679716 -2.489860058
thorax  0.5389080048 -0.226146996 -3.448029995
lowerneck  -16.79039955 2.199039936 1.912479997
upperneck  16.10239983 1.620679975 3.653860092
head  7.727590084 1.179309964 1.071179867
lclavicle  0 -4.497500157e-015 -2.743230041e-014
lhumerus  -43.70529938 25.96800041 70.69390106
lradius  -0.1098911315 -6.507048965e-006 28.21020126
lwrist  4.824992743e-007 -3.790274832e-007 -29.27969933
lhand  -4.408240579e-031 -36.77159882 -10.69909954
lfingers  90 7.125020027 -90
lthumb  94.76093921 -25.53903779 100.9338349
rclavicle  0 -4.497500157e-015 -2.743230041e-014
rhumerus  -47.6955986 -20.36260223 -69.32740021
rradius  -5.16745672e-007 2.214343908e-008 76.34629822
rwrist  1.129822067e-006 0.001802438172 -167.8289948
rhand  -1.772936348e-031 5.227429867 -6.015799999
rfingers  -90 -7.125020027 -90
rthumb  -84.08695906 -9.886571401 -58.90122156
rfemur  -11.72259998 14.19073677 13.94033146
rtibia  -1.028658152 1.343577981 20.81871605
rfoot  -0.6229636073 -17.6640625 -40.82674026
rtoes  3.933195382 19.62498224 -101.5693228
lfemur  -9.888332367 -19.63479805 -18.63046837
ltibia  1.82832253 0.8827078938 15.7292738
lfoot  0.4315689802 -27.72926521 34.06916046
ltoes  -8.551489724 -18.14765968 -115.7702964
312
root  35.09123494 36.51805487 -14.77418584 9.225136757 3.09291482 3.143313169
lowerback  -8.068050385 0.2662650347 1.632359624
upperback  -3.850389957 -0.06774560362 -2.483309984
thorax  0.5384770036 -0.2182099968 -3.490829945
lowerneck  -16.80960083 2.200700045 1.935610056
upperneck  16.11380005 1.620970011 3.629570007
head  7.735169888 1.17888999 1.05982995
lclavicle  0 -4.497500157e-015 -2.743230041e-014
lhumerus  -43.64899826 25.37829971 71.04450226
lradius  -0.1057742611 -6.507048965e-006 28.48110199
lwrist  4.824992743e-007 -3.790274832e-007 -28.75110054
lhand  -4.40528899e-031 -36.72019958 -10.74870014
lfingers  90 7.125020027 -90
lthumb  94.74723931 -25.58948939 100.8834137
rclavicle  0 -4.497500157e-015 -2.743230041e-014
rhumerus  -47.78300095 -20.99839783 -68.90640259
rradius  -5.16745672e-007 2.214343908e-008 74.36219788
rwrist  1.129822067e-006 0.001802438172 -166.9859924
rhand  -1.77225396e-031 4.980480194 -5.99751997
rfingers  -90 -7.125020027 -90
rthumb  -84.14106238 -9.888946379 -59.1412912
rfemur  -11.8195858 14.17503929 13.89074039
rtibia  -1.060708404 1.284410596 20.91268539
rfoot  -0.6561387181 -17.76721954 -40.75389862
rtoes  3.93757099 19.62413804 -101.5823511
lfemur  -9.877578735 -19.54232788 -18.69741821
ltibia  1.880316138 0.888194859 15.65664101
lfoot  0.4435262084 -27.70454788 34.07494354
ltoes  -8.523213922 -18.1606049 -115.679545
313
root  35.09130703 36.51753523 -14.77946785 9.237236977 3.000674963 3.135612965
lowerback  -8.066159248 0.2726400495 1.648079515
upperback  -3.842799902 -0.05951720104 -2.481260061
thorax  0.5458599925 -0.2137269974 -3.496939898
lowerneck  -16.81839943 2.20359993 1.948699951
upperneck  16.1086998 1.627220035 3.604589939
head  7.735277653 1.178477764 1.050252438
lclavicle  0 -4.497500157e-015 -2.743230041e-014
lhumerus  -43.64670181 25.30760002 71.03089905
lradius  -0.1016284376 -6.507048965e-006 28.53330231
lwrist  4.824992743e-007 -3.790274832e-007 -28.99810028
lhand  -4.405753553e-031 -36.72829819 -10.70909977
lfingers  90 7.125020027 -90
lthumb  94.74275181 -25.55034973 100.8884889
rclavicle  0 -4.497500157e-015 -2.743230041e-014
rhumerus  -47.86119843 -21.55330086 -68.51270294
rradius  -5.16745672e-007 2.214343908e-008 72.33580017
rwrist  1.129822067e-006 0.001802438172 -166.7389984
rhand  -1.772430711e-031 5.045619965 -6.099969864
rfingers  -90 -7.125020027 -90
rthumb  -84.17775113 -9.804532075 -59.08669841
rfemur  -11.86841106 14.18065262 13.87559891
rtibia  -1.059583187 1.255211711 20.9342823
rfoot  -0.6651719809 -17.83823013 -40.70791626
rtoes  3.95887585 19.62001361 -101.6457934
lfemur  -9.878927231 -19.43162537 -18.6900959
ltibia  1.890044928 0.9480321407 15.6439333
lfoot  0.4952148795 -27.8263073 34.15864563
ltoes  -8.555022688 -18.14603846 -115.7816398
